# xmcd
#
# Track frame offsets:
#	150
#	16240
#	33560
#	49458
#	59972
#	76015
#	89366
#	106740
#	123905
#	137896
#	149837
#	164075
#	176249
#	189775
#
# Disc length: 2745 seconds
# Revision: 0
# Processed by: cddbd v1.5.2PL0 Copyright (c) Steve Scherf et al.
# Submitted via: dBpowerAMP V12.0
#
DISCID=cc0ab70e
DTITLE=Martina McBride - Everlasting
DYEAR=2014
DGENRE=Country
TTITLE0=Do Right Woman, Do Right Man
TTITLE1=Suspicious Minds
TTITLE2=If You Don't Know Me By Now
TTITLE3=Little Bit Of Rain
TTITLE4=Bring It On Home To Me
TTITLE5=Come See About Me
TTITLE6=What Becomes Of The Broken Hearted
TTITLE7=I've Been Loving You Too Long
TTITLE8=Wild Night
TTITLE9=In The Basement
TTITLE10=My Babe
TTITLE11=To Know Him Is To Love Him
TTITLE12=That's How Strong My Love Is
TTITLE13=Baby What You Want Me To Do
EXTD=
EXTT0=
EXTT1=
EXTT2=
EXTT3=
EXTT4=
EXTT5=
EXTT6=
EXTT7=
EXTT8=
EXTT9=
EXTT10=
EXTT11=
EXTT12=
EXTT13=
PLAYORDER=
